<svg xmlns="http://www.w3.org/2000/svg" viewBox="0 0 859.4 164.73"><defs><style>.cls-1{fill:#dcbe56}.cls-2{opacity:.3}.cls-3{fill:#1d324c}.cls-4{fill:#2e435b}.cls-5,.cls-8{fill:#fddd72}.cls-6{fill:#fa5b63}.cls-7{fill:#e53e4e}.cls-8{font-size:60px;font-family:Gotham-Bold,Gotham;font-weight:700}.cls-10,.cls-11,.cls-12,.cls-13,.cls-9{fill:#fc5b62}.cls-9{letter-spacing:-.02em}.cls-10{letter-spacing:-.01em}.cls-11{letter-spacing:0}.cls-12{letter-spacing:-.03em}.cls-14{letter-spacing:-.04em}.cls-15{letter-spacing:-.06em}.cls-16{letter-spacing:-.11em}.cls-17{letter-spacing:-.05em}</style></defs><title>sail-app-nav-logo</title><g id="Layer_2" data-name="Layer 2"><g id="Layer_1-2" data-name="Layer 1"><path d="M62.07,106.42V79.89A222.43,222.43,0,0,0,0,71.06l13.59,14.3L0,97.59A222.43,222.43,0,0,1,62.07,106.42Z" class="cls-1"/><path d="M98.87,106.42V79.89a222.43,222.43,0,0,1,62.07-8.83l-13.59,14.3,13.59,12.23A222.43,222.43,0,0,0,98.87,106.42Z" class="cls-1"/><polygon points="18.4 79.26 28.64 76.11 28.64 90.22 18.4 79.26" class="cls-2"/><polygon points="142.54 79.26 132.29 76.11 132.29 90.22 142.54 79.26" class="cls-2"/><path d="M128.17,30.14a163.73,163.73,0,0,0-95.4,0,8.46,8.46,0,0,0-6,8.11v86.63a15.38,15.38,0,0,0,7.68,13.31l46,26.54,46-26.54a15.37,15.37,0,0,0,7.69-13.31V38.25A8.46,8.46,0,0,0,128.17,30.14Z" class="cls-3"/><path d="M124,34.51a149.52,149.52,0,0,0-87.08,0,7.74,7.74,0,0,0-5.45,7.41v80.26a14,14,0,0,0,7,12.15l42,24.23,42-24.23a14,14,0,0,0,7-12.15V41.92A7.74,7.74,0,0,0,124,34.51Z" class="cls-4"/><path d="M122.34,36.74a143.89,143.89,0,0,0-41.61-6.23V155.9l40.1-23.16a13.48,13.48,0,0,0,6.75-11.68V43.87A7.44,7.44,0,0,0,122.34,36.74Z" class="cls-3"/><path d="M142.54,105.79a222.45,222.45,0,0,1-124.14,0V79.26a222.45,222.45,0,0,0,124.14,0Z" class="cls-5"/><path d="M80.47,139.55s-4.22-7.65-12.4-7.65-29.29,0-29.29-16.62,1-20.85,1-20.85l9.77,17.15s-5.28-.36-6.07,2.59-1.59,12.72,14.91,12.72,17.81-3.17,17.81-11.09,2.37-57.39,2.37-57.39h1.85Z" class="cls-6"/><rect width="16.1" height="2.73" x="63.32" y="61.52" class="cls-6"/><path d="M80.47,139.55s4.22-7.65,12.4-7.65,29.29,0,29.29-16.62-1.06-20.85-1.06-20.85l-9.76,17.15s5.28-.36,6.07,2.59,1.59,12.72-14.91,12.72-17.81-3.17-17.81-11.09-2.37-57.39-2.37-57.39H80.47Z" class="cls-7"/><rect width="16.1" height="2.73" x="81.52" y="61.52" class="cls-7" transform="translate(179.15 125.78) rotate(180)"/><path d="M80.47,46.74a4.68,4.68,0,1,1-4.68,4.68,4.69,4.69,0,0,1,4.68-4.68m0-3.1a7.79,7.79,0,1,0,7.78,7.78,7.78,7.78,0,0,0-7.78-7.78Z" class="cls-6"/><path d="M79.41,0V28.2a74.4,74.4,0,0,1-22.9-3.64q-1.17-8.07-1.78-16.12C53.65,8.62,69.69,27.22,79.41,0Z" class="cls-5"/><path d="M79.41,0V28.2a74.42,74.42,0,0,0,22.91-3.64q1.17-8.07,1.78-16.12C105.18,8.62,89.14,27.22,79.41,0Z" class="cls-1"/><text class="cls-8" transform="translate(186.5 106.42)">THE <tspan x="142.68" y="0" class="cls-9">L</tspan><tspan x="178.62" y="0" class="cls-10">UX</tspan><tspan x="266.7" y="0" class="cls-11">U</tspan><tspan x="312.06" y="0" class="cls-12">R</tspan><tspan x="353.94" y="0" class="cls-13">Y </tspan><tspan x="414.9" y="0" class="cls-14">V</tspan><tspan x="457.2" y="0" class="cls-15">O</tspan><tspan x="504.6" y="0" class="cls-16">Y</tspan><tspan x="540.96" y="0" class="cls-17">A</tspan><tspan x="585.66" y="0">GE</tspan></text></g></g></svg>